[Header]
FileType HTR
DataType HTRS
FileVersion 1
NumSegments 64
NumFrames 3
DataFrameRate 24
EulerRotationOrder ZYX
CalibrationUnits mm
RotationUnits Degrees
GlobalAxisofGravity Y
BoneLengthAxis Y
ScaleFactor 1.0
[SegmentNames&Hierarchy]
Hips	GLOBAL
Spine	Hips
Spine1	Spine
Spine2	Spine1
Neck	Spine2
Head	Neck
LeftEye	Head
RightEye	Head
LeftShoulder	Spine2
LeftArm	LeftShoulder
LeftForeArm	LeftArm
LeftHand	LeftForeArm
LeftHandThumb1	LeftHand
LeftHandThumb2	LeftHandThumb1
LeftHandThumb3	LeftHandThumb2
LeftHandThumb4	LeftHandThumb3
LeftHandIndex1	LeftHand
LeftHandIndex2	LeftHandIndex1
LeftHandIndex3	LeftHandIndex2
LeftHandIndex4	LeftHandIndex3
LeftHandMiddle1	LeftHand
LeftHandMiddle2	LeftHandMiddle1
LeftHandMiddle3	LeftHandMiddle2
LeftHandMiddle4	LeftHandMiddle3
LeftHandRing1	LeftHand
LeftHandRing2	LeftHandRing1
LeftHandRing3	LeftHandRing2
LeftHandRing4	LeftHandRing3
LeftHandPinky1	LeftHand
LeftHandPinky2	LeftHandPinky1
LeftHandPinky3	LeftHandPinky2
LeftHandPinky4	LeftHandPinky3
RightShoulder	Spine2
RightArm	RightShoulder
RightForeArm	RightArm
RightHand	RightForeArm
RightHandPinky1	RightHand
RightHandPinky2	RightHandPinky1
RightHandPinky3	RightHandPinky2
RightHandPinky4	RightHandPinky3
RightHandRing1	RightHand
RightHandRing2	RightHandRing1
RightHandRing3	RightHandRing2
RightHandRing4	RightHandRing3
RightHandMiddle1	RightHand
RightHandMiddle2	RightHandMiddle1
RightHandMiddle3	RightHandMiddle2
RightHandMiddle4	RightHandMiddle3
RightHandIndex1	RightHand
RightHandIndex2	RightHandIndex1
RightHandIndex3	RightHandIndex2
RightHandIndex4	RightHandIndex3
RightHandThumb1	RightHand
RightHandThumb2	RightHandThumb1
RightHandThumb3	RightHandThumb2
RightHandThumb4	RightHandThumb3
LeftUpLeg	Hips
LeftLeg	LeftUpLeg
LeftFoot	LeftLeg
LeftToeBase	LeftFoot
RightUpLeg	Hips
RightLeg	RightUpLeg
RightFoot	RightLeg
RightToeBase	RightFoot
[BasePosition]
Hips	0	0	0	0	0	0	1
Spine	0	0	0	0	0	0	1
Spine1	0	0	0	0	0	0	1
Spine2	0	0	0	0	0	0	1
Neck	0	0	0	0	0	0	1
Head	0	0	0	0	0	0	1
LeftEye	0	0	0	0	0	0	1
RightEye	0	0	0	0	0	0	1
LeftShoulder	0	0	0	0	0	0	1
LeftArm	0	0	0	0	0	0	1
LeftForeArm	0	0	0	0	0	0	1
LeftHand	0	0	0	0	0	0	1
LeftHandThumb1	0	0	0	0	0	0	1
LeftHandThumb2	0	0	0	0	0	0	1
LeftHandThumb3	0	0	0	0	0	0	1
LeftHandThumb4	0	0	0	0	0	0	1
LeftHandIndex1	0	0	0	0	0	0	1
LeftHandIndex2	0	0	0	0	0	0	1
LeftHandIndex3	0	0	0	0	0	0	1
LeftHandIndex4	0	0	0	0	0	0	1
LeftHandMiddle1	0	0	0	0	0	0	1
LeftHandMiddle2	0	0	0	0	0	0	1
LeftHandMiddle3	0	0	0	0	0	0	1
LeftHandMiddle4	0	0	0	0	0	0	1
LeftHandRing1	0	0	0	0	0	0	1
LeftHandRing2	0	0	0	0	0	0	1
LeftHandRing3	0	0	0	0	0	0	1
LeftHandRing4	0	0	0	0	0	0	1
LeftHandPinky1	0	0	0	0	0	0	1
LeftHandPinky2	0	0	0	0	0	0	1
LeftHandPinky3	0	0	0	0	0	0	1
LeftHandPinky4	0	0	0	0	0	0	1
RightShoulder	0	0	0	0	0	0	1
RightArm	0	0	0	0	0	0	1
RightForeArm	0	0	0	0	0	0	1
RightHand	0	0	0	0	0	0	1
RightHandPinky1	0	0	0	0	0	0	1
RightHandPinky2	0	0	0	0	0	0	1
RightHandPinky3	0	0	0	0	0	0	1
RightHandPinky4	0	0	0	0	0	0	1
RightHandRing1	0	0	0	0	0	0	1
RightHandRing2	0	0	0	0	0	0	1
RightHandRing3	0	0	0	0	0	0	1
RightHandRing4	0	0	0	0	0	0	1
RightHandMiddle1	0	0	0	0	0	0	1
RightHandMiddle2	0	0	0	0	0	0	1
RightHandMiddle3	0	0	0	0	0	0	1
RightHandMiddle4	0	0	0	0	0	0	1
RightHandIndex1	0	0	0	0	0	0	1
RightHandIndex2	0	0	0	0	0	0	1
RightHandIndex3	0	0	0	0	0	0	1
RightHandIndex4	0	0	0	0	0	0	1
RightHandThumb1	0	0	0	0	0	0	1
RightHandThumb2	0	0	0	0	0	0	1
RightHandThumb3	0	0	0	0	0	0	1
RightHandThumb4	0	0	0	0	0	0	1
LeftUpLeg	0	0	0	0	0	0	1
LeftLeg	0	0	0	0	0	0	1
LeftFoot	0	0	0	0	0	0	1
LeftToeBase	0	0	0	0	0	0	1
RightUpLeg	0	0	0	0	0	0	1
RightLeg	0	0	0	0	0	0	1
RightFoot	0	0	0	0	0	0	1
RightToeBase	0	0	0	0	0	0	1
[Hips]
9	115.5091705	1016.658691	-36.3761673	-1.4796381	-18.42853165	-3.746134996	1.0
10	111.8915405	1017.807556	-45.95818329	-1.845908046	-22.8530426	-3.78878808	1.0
11	105.5834885	1017.409912	-57.58555984	-1.79942441	-27.42041779	-4.359444618	1.0
[Spine]
9	0	101.8159943	1.315000057	3.029632807	-0.4362260103	3.336771011	1.0
10	0	101.8159943	1.315000057	2.820414066	-0.7945255041	3.266548395	1.0
11	0	101.8159943	1.315000057	2.750757933	-0.839169085	3.23512578	1.0
[Spine1]
9	0	100.8349991	-10.00800037	0.9485499859	-1.359454393	-1.258859754	1.0
10	0	100.8349991	-10.00800037	0.7841687202	-1.685932398	-1.782430649	1.0
11	0	100.8349991	-10.00800037	0.7216817737	-1.756515145	-2.154373884	1.0
[Spine2]
9	0	91	-13.73399925	0.8431203961	-1.107117772	1.499199986	1.0
10	0	91	-13.73399925	0.6505567431	-1.380755901	1.410181284	1.0
11	0	91	-13.73399925	0.5727752447	-1.40710032	1.421925306	1.0
[Neck]
9	0	166.7169952	-25.16200066	7.884618759	-9.499564171	2.352916002	1.0
10	0	166.7169952	-25.16200066	7.96478653	-9.177307129	2.348939419	1.0
11	0	166.7169952	-25.16200066	7.912238598	-8.741047859	2.326590538	1.0
[Head]
9	0	96.17900085	16.84999847	-2.634912014	-24.19663429	8.729370117	1.0
10	0	96.17900085	16.84999847	-2.583249331	-24.04176331	9.070034981	1.0
11	0	96.17900085	16.84999847	-2.540569067	-23.81165504	9.221834183	1.0
[LeftEye]
9	30.6760006	64.09500122	92.83599854	0	0	0	1.0
10	30.6760006	64.09500122	92.83599854	0	0	0	1.0
11	30.6760006	64.09500122	92.83599854	0	0	0	1.0
[RightEye]
9	-30.6760006	64.09500122	92.83499908	0	0	0	1.0
10	-30.6760006	64.09500122	92.83499908	0	0	0	1.0
11	-30.6760006	64.09500122	92.83499908	0	0	0	1.0
[LeftShoulder]
9	45.70400238	109.4599991	-26.28000069	4.682100296	-15.9563694	-12.75181866	1.0
10	45.70400238	109.4599991	-26.28000069	4.627557278	-16.07039833	-12.74937725	1.0
11	45.70400238	109.4599991	-26.28000069	4.616833687	-16.72063446	-12.78547573	1.0
[LeftArm]
9	105.923996	-5.24600029	-22.32099915	18.0487442	4.086035728	-63.17041779	1.0
10	105.923996	-5.24600029	-22.32099915	17.43313217	4.999081612	-62.18841171	1.0
11	105.923996	-5.24600029	-22.32099915	16.209095	5.333961487	-61.20000458	1.0
[LeftForeArm]
9	278.414978	-0.0009999999311	0	5.022603091e-06	-8.231850624	-0.0002070741903	1.0
10	278.414978	-0.0009999999311	0	1.063284526e-05	-8.962688446	-0.0002121964353	1.0
11	278.414978	-0.0009999999311	0	5.749396223e-06	-9.075406075	-0.0002002908877	1.0
[LeftHand]
9	283.2879944	0	0	-31.74011612	4.138419628	-0.6958902478	1.0
10	283.2879944	0	0	-30.06179237	5.195166111	0.1811302006	1.0
11	283.2879944	0	0	-28.28414154	6.627128601	0.5782737136	1.0
[LeftHandThumb1]
9	24.6609993	-15.75	26.8239994	-0.4889863729	2.201392412	4.818544865	1.0
10	24.6609993	-15.75	26.8239994	-0.4889863729	2.201392412	4.818544865	1.0
11	24.6609993	-15.75	26.8239994	-0.4889863729	2.201392412	4.818544865	1.0
[LeftHandThumb2]
9	32.29800034	-18.64699936	18.64699936	19.54631615	18.88619804	22.86231232	1.0
10	32.29800034	-18.64699936	18.64699936	19.97236252	19.33533859	22.94791412	1.0
11	32.29800034	-18.64699936	18.64699936	19.92754555	19.14280891	22.9698925	1.0
[LeftHandThumb3]
9	26.52600098	-15.31499958	15.31499958	-13.16076279	5.515197277	7.972247601	1.0
10	26.52600098	-15.31499958	15.31499958	-13.15741062	5.523437023	7.972584248	1.0
11	26.52600098	-15.31499958	15.31499958	-13.15385246	5.532416344	7.974088192	1.0
[LeftHandThumb4]
9	19.54599953	-11.28499985	11.28499985	0	0	0	1.0
10	19.54599953	-11.28499985	11.28499985	0	0	0	1.0
11	19.54599953	-11.28499985	11.28499985	0	0	0	1.0
[LeftHandIndex1]
9	91.09299469	-5.170999527	22.60099792	0.06368052214	-0.9835426807	-8.259911537	1.0
10	91.09299469	-5.170999527	22.60099792	0.1010418832	-0.9040443897	-8.320351601	1.0
11	91.09299469	-5.170999527	22.60099792	0.1303720623	-0.8941717148	-8.10090065	1.0
[LeftHandIndex2]
9	36.76399994	0	0	-0.264539212	1.73825562	-17.30541229	1.0
10	36.76399994	0	0	-0.265598923	1.74161303	-17.33995438	1.0
11	36.76399994	0	0	-0.2681622803	1.749853611	-17.42452049	1.0
[LeftHandIndex3]
9	28.83100128	0	0	-0.05642116442	0.8101661205	-7.967332363	1.0
10	28.83100128	0	0	-0.05690681189	0.813652277	-8.001854897	1.0
11	28.83100128	0	0	-0.0581157729	0.822175324	-8.086381912	1.0
[LeftHandIndex4]
9	23.92700005	0	0	0	0	0	1.0
10	23.92700005	0	0	0	0	0	1.0
11	23.92700005	0	0	0	0	0	1.0
[LeftHandMiddle1]
9	95.33399963	0	0	-0.8138343096	2.625735044	-16.00400352	1.0
10	95.33399963	0	0	-0.8013822436	2.687547684	-15.81829643	1.0
11	95.33399963	0	0	-0.786108017	2.648169994	-15.5925951	1.0
[LeftHandMiddle2]
9	36.98199844	0	0	-0.2699224055	1.755423784	-17.48187828	1.0
10	36.98199844	0	0	-0.270170331	1.756228566	-17.49026108	1.0
11	36.98199844	0	0	-0.2689720988	1.752400637	-17.45083427	1.0
[LeftHandMiddle3]
9	29.50900078	0	0	-0.3016428053	1.853088379	-18.48936462	1.0
10	29.50900078	0	0	-0.3019081354	1.853852749	-18.49728012	1.0
11	29.50900078	0	0	-0.3006234467	1.850047946	-18.45797539	1.0
[LeftHandMiddle4]
9	28.3390007	0	0	0	0	0	1.0
10	28.3390007	0	0	0	0	0	1.0
11	28.3390007	0	0	0	0	0	1.0
[LeftHandRing1]
9	91.04499817	-0.4390000105	-18.65100098	-1.2243613	3.241214752	-21.69002533	1.0
10	91.04499817	-0.4390000105	-18.65100098	-1.222981095	3.286169767	-21.67093086	1.0
11	91.04499817	-0.4390000105	-18.65100098	-1.209986448	3.303113937	-21.49972916	1.0
[LeftHandRing2]
9	31.54000092	0	0	-0.3837641478	2.082495689	-20.88056374	1.0
10	31.54000092	0	0	-0.3845035732	2.084409952	-20.900774	1.0
11	31.54000092	0	0	-0.3829836249	2.080456495	-20.85908699	1.0
[LeftHandRing3]
9	29.37700081	0	0	-0.2808099091	1.789610744	-17.83388138	1.0
10	29.37700081	0	0	-0.281439513	1.791571498	-17.85397339	1.0
11	29.37700081	0	0	-0.2801364362	1.787514567	-17.81228256	1.0
[LeftHandRing4]
9	26.47500038	0	0	0	0	0	1.0
10	26.47500038	0	0	0	0	0	1.0
11	26.47500038	0	0	0	0	0	1.0
[LeftHandPinky1]
9	80.77799988	-4.887000084	-38.06099701	-1.877577066	4.73931694	-27.82094955	1.0
10	80.77799988	-4.887000084	-38.06099701	-1.831523657	4.88468647	-27.59360886	1.0
11	80.77799988	-4.887000084	-38.06099701	-1.78434062	5.077329636	-27.45243835	1.0
[LeftHandPinky2]
9	36	0	0	-0.270914197	1.758570194	-17.51424789	1.0
10	36	0	0	-0.2712113857	1.759536028	-17.52413559	1.0
11	36	0	0	-0.2706528008	1.757747412	-17.50580597	1.0
[LeftHandPinky3]
9	21.14200211	0	0	-0.2435649782	1.669472814	-16.59983826	1.0
10	21.14200211	0	0	-0.2439572513	1.670784473	-16.61332893	1.0
11	21.14200211	0	0	-0.2435531169	1.669428468	-16.59946823	1.0
[LeftHandPinky4]
9	19.75699997	0	0	0	0	0	1.0
10	19.75699997	0	0	0	0	0	1.0
11	19.75699997	0	0	0	0	0	1.0
[RightShoulder]
9	-45.70000076	109.4620056	-26.28000069	5.000631332	13.99306297	14.97917843	1.0
10	-45.70000076	109.4620056	-26.28000069	4.950127125	14.12519646	14.93634033	1.0
11	-45.70000076	109.4620056	-26.28000069	4.823729515	14.35373497	14.78866863	1.0
[RightArm]
9	-105.9280014	-5.248000145	-22.32099915	-18.27464485	-10.79982662	63.92788696	1.0
10	-105.9280014	-5.248000145	-22.32099915	-23.42000198	-12.60899639	65.93482971	1.0
11	-105.9280014	-5.248000145	-22.32099915	-27.5784874	-13.52627373	68.11130524	1.0
[RightForeArm]
9	-278.414978	0	0	-6.21326808e-06	25.53242874	-2.064027831e-05	1.0
10	-278.414978	0	0	7.512451702e-06	25.81372261	2.915166078e-06	1.0
11	-278.414978	0	0	-5.086313649e-06	24.87434196	-4.50521128e-07	1.0
[RightHand]
9	-283.2879944	0	0.0009999999311	25.65805435	18.91671181	5.086331844	1.0
10	-283.2879944	0	0.0009999999311	30.20593643	18.87443161	7.635809898	1.0
11	-283.2879944	0	0.0009999999311	33.17793274	17.68433571	9.03871727	1.0
[RightHandPinky1]
9	-80.76699829	-4.885000229	-38.06000137	-1.501933694	-5.358360767	27.00314903	1.0
10	-80.76699829	-4.885000229	-38.06000137	-1.484595656	-5.455841541	26.80245972	1.0
11	-80.76699829	-4.885000229	-38.06000137	-1.453714252	-5.784536362	26.4141674	1.0
[RightHandPinky2]
9	-36	0	0.0009999999311	-0.2122415304	-1.387212157	17.41636848	1.0
10	-36	0	0.0009999999311	-0.211720258	-1.3855474	17.39490318	1.0
11	-36	0	0.0009999999311	-0.2119835466	-1.386395097	17.40573692	1.0
[RightHandPinky3]
9	-21.14200211	0	0	-0.1914860457	-1.319181919	16.5180397	1.0
10	-21.14200211	0	0	-0.1910192817	-1.317576408	16.4973774	1.0
11	-21.14200211	0	0	-0.1913180351	-1.318585396	16.51046562	1.0
[RightHandPinky4]
9	-19.75699997	0	0	0	0	0	1.0
10	-19.75699997	0	0	0	0	0	1.0
11	-19.75699997	0	0	0	0	0	1.0
[RightHandRing1]
9	-91.03599548	-0.4390000105	-18.65100098	-1.114414096	-3.160089016	21.51695824	1.0
10	-91.03599548	-0.4390000105	-18.65100098	-1.100910306	-3.060094357	21.31588745	1.0
11	-91.03599548	-0.4390000105	-18.65100098	-1.086506486	-2.903643131	21.10189819	1.0
[RightHandRing2]
9	-31.54000092	0	0	-0.3074672222	-1.660754919	20.9758873	1.0
10	-31.54000092	0	0	-0.3070031404	-1.659579635	20.96019745	1.0
11	-31.54000092	0	0	-0.30594787	-1.65680778	20.9235363	1.0
[RightHandRing3]
9	-29.37700081	0	0	-0.2251734734	-1.427839994	17.92340469	1.0
10	-29.37700081	0	0	-0.2248053551	-1.426655412	17.90817261	1.0
11	-29.37700081	0	0	-0.2239006907	-1.423884869	17.87214279	1.0
[RightHandRing4]
9	-26.47500038	0	0	0	0	0	1.0
10	-26.47500038	0	0	0	0	0	1.0
11	-26.47500038	0	0	0	0	0	1.0
[RightHandMiddle1]
9	-95.32500458	0	0	-0.7861952186	-2.798984051	16.40070343	1.0
10	-95.32500458	0	0	-0.7632670999	-2.782019377	16.02485657	1.0
11	-95.32500458	0	0	-0.7492027283	-2.927609444	15.7909584	1.0
[RightHandMiddle2]
9	-36.98199844	0	0	-0.2161149383	-1.399502873	17.55587578	1.0
10	-36.98199844	0	0	-0.2147792578	-1.395271897	17.50113678	1.0
11	-36.98199844	0	0	-0.2151028365	-1.3963027	17.51450729	1.0
[RightHandMiddle3]
9	-29.50900078	0	0	-0.2413985431	-1.479052305	18.56335258	1.0
10	-29.50900078	0	0	-0.2399957925	-1.474843621	18.50857162	1.0
11	-29.50900078	0	0	-0.240335688	-1.475870609	18.52190971	1.0
[RightHandMiddle4]
9	-28.3390007	0	0.0009999999311	0	0	0	1.0
10	-28.3390007	0	0.0009999999311	0	0	0	1.0
11	-28.3390007	0	0.0009999999311	0	0	0	1.0
[RightHandIndex1]
9	-91.08300018	-5.167999744	22.60099792	0.2696067095	0.8213927746	8.173915863	1.0
10	-91.08300018	-5.167999744	22.60099792	0.2494086772	0.9269557595	7.845247269	1.0
11	-91.08300018	-5.167999744	22.60099792	0.1727399677	1.143491387	7.566981792	1.0
[RightHandIndex2]
9	-36.76399994	0	0	-0.2125579119	-1.388219357	17.40973091	1.0
10	-36.76399994	0	0	-0.2129962146	-1.389612198	17.4277401	1.0
11	-36.76399994	0	0	-0.2126670778	-1.388572454	17.41428566	1.0
[RightHandIndex3]
9	-28.83100128	0	0	-0.04579001665	-0.6502818465	8.055603027	1.0
10	-28.83100128	0	0	-0.04599339887	-0.6517238617	8.073610306	1.0
11	-28.83100128	0	0	-0.04583814368	-0.6506521106	8.060156822	1.0
[RightHandIndex4]
9	-23.92700005	0	0	0	0	0	1.0
10	-23.92700005	0	0	0	0	0	1.0
11	-23.92700005	0	0	0	0	0	1.0
[RightHandThumb1]
9	-24.64799881	-15.72700024	26.82600021	-1.658462644	-0.289145112	-4.221315384	1.0
10	-24.64799881	-15.72700024	26.82600021	-1.658462644	-0.289145112	-4.221315384	1.0
11	-24.64799881	-15.72700024	26.82600021	-1.658462644	-0.289145112	-4.221315384	1.0
[RightHandThumb2]
9	-32.29800034	-18.64699936	18.64699936	23.13452339	-23.06520462	-24.27918816	1.0
10	-32.29800034	-18.64699936	18.64699936	22.91632843	-22.5414772	-23.96013069	1.0
11	-32.29800034	-18.64699936	18.64699936	22.3957386	-21.16896057	-23.34119034	1.0
[RightHandThumb3]
9	-26.52600098	-15.31399918	15.31399918	-13.21132278	-4.90167141	-12.1716013	1.0
10	-26.52600098	-15.31399918	15.31399918	-13.49586105	-5.245592117	-11.95557117	1.0
11	-26.52600098	-15.31399918	15.31399918	-13.8219614	-5.764772892	-11.57234001	1.0
[RightHandThumb4]
9	-19.54599953	-11.28499985	11.28499985	0	0	0	1.0
10	-19.54599953	-11.28499985	11.28499985	0	0	0	1.0
11	-19.54599953	-11.28499985	11.28499985	0	0	0	1.0
[LeftUpLeg]
9	82.07800293	-67.51699829	-15.99599934	-16.82089615	14.08163643	1.411309123	1.0
10	82.07800293	-67.51699829	-15.99599934	-15.8867979	16.18167305	2.461420298	1.0
11	82.07800293	-67.51699829	-15.99599934	-17.37389565	21.50867844	4.529346943	1.0
[LeftLeg]
9	0	-443.7049866	2.845999956	26.09889984	5.362632275	8.418842316	1.0
10	0	-443.7049866	2.845999956	25.69823074	6.795437336	8.551733017	1.0
11	0	-443.7049866	2.845999956	29.16682243	2.117277622	4.504351139	1.0
[LeftFoot]
9	0	-444.2789917	-29.8219986	-7.112400532	21.62682724	-6.063674927	1.0
10	0	-444.2789917	-29.8219986	-6.583148479	22.50464058	-6.426881313	1.0
11	0	-444.2789917	-29.8219986	-6.777752876	22.64922905	-3.545065165	1.0
[LeftToeBase]
9	0	-87.28699493	107.1060028	-4.928520679	1.833717761e-06	-1.140058203e-06	1.0
10	0	-87.28699493	107.1060028	-4.928525925	-3.314492687e-06	5.094082667e-07	1.0
11	0	-87.28699493	107.1060028	-6.087785244	-1.483213055e-05	-1.273981297e-06	1.0
[RightUpLeg]
9	-82.07800293	-67.51699829	-15.99599934	-7.219193459	-17.2694931	-4.203388214	1.0
10	-82.07800293	-67.51699829	-15.99599934	-6.0130229	-21.19286346	-3.805222034	1.0
11	-82.07800293	-67.51699829	-15.99599934	-6.164330959	-23.11916351	-2.398518801	1.0
[RightLeg]
9	0	-443.7049866	2.861999989	29.79952431	-13.734231	3.607069492	1.0
10	0	-443.7049866	2.861999989	26.51154137	-13.46795845	4.492630482	1.0
11	0	-443.7049866	2.861999989	24.35783005	-13.2228651	5.262818813	1.0
[RightFoot]
9	0	-444.2770081	-29.83799934	-11.34145927	-28.62969589	11.00811386	1.0
10	0	-444.2770081	-29.83799934	-12.10259438	-29.20141029	7.299334049	1.0
11	0	-444.2770081	-29.83799934	-12.27482414	-30.24416542	2.553580284	1.0
[RightToeBase]
9	0	-87.28699493	107.1060028	-12.73088455	-1.675435669e-05	6.484498954e-06	1.0
10	0	-87.28699493	107.1060028	-10.15499496	9.563969797e-06	-3.968433191e-07	1.0
11	0	-87.28699493	107.1060028	-9.114328384	-6.073185432e-06	3.511156137e-06	1.0
[EndOfFile]
